<svg xmlns="http://www.w3.org/2000/svg" viewBox="0 0 384 512">
<g>
	<path fill="currentColor" d="M224,136V0H24C10.7,0,0,10.7,0,24v464c0,13.3,10.7,24,24,24h336c13.3,0,24-10.7,24-24V160H248C234.8,160,224,149.2,224,136
		z M144,294.1h-41v179.2H63.3V294.1h-41v-35H144V294.1z M301.8,259.1h37.5v214.2h-37.5V259.1z M263.4,293.5h-56.7v51h52.6v34.6
		h-52.6v59.3h56.7v34.9h-96.5V259.1h96.5V293.5z"/>
	<path fill="currentColor" d="M377,105L279.1,7c-4.5-4.5-10.6-7-17-7H256v128h128v-6.1C384,115.6,381.5,109.5,377,105z"/>
</g>
</svg>
